# Blender 4.5.1 LTS
# www.blender.org
mtllib Tileindication.mtl
o Cube.005
v -0.927624 -0.088461 0.927624
v -0.927624 -0.088461 -0.927624
v 0.927624 -0.087655 -0.927624
v 0.927624 -0.088461 0.927624
v 0.991667 -0.086566 -0.600000
v 0.991667 -0.087670 -0.200000
v 0.991667 -0.087566 0.200000
v 0.991667 -0.088097 0.600000
v -0.991667 -0.088274 0.600000
v -0.992053 -0.087984 0.200000
v -0.993210 -0.087115 -0.200000
v -0.992053 -0.087984 -0.600000
v 0.600000 -0.088274 0.991667
v 0.200000 -0.088065 0.991667
v -0.200000 -0.087436 0.991667
v -0.600000 -0.088065 0.991667
v -0.600000 -0.088274 -0.991667
v -0.200000 -0.088274 -0.991667
v 0.200000 -0.087847 -0.991667
v 0.600000 -0.086566 -0.991667
v -0.990826 -0.088158 -0.698823
v -0.983690 -0.088285 -0.790587
v -0.964609 -0.088404 -0.868596
v 0.698823 -0.086707 -0.990664
v 0.790587 -0.087052 -0.983642
v 0.868596 -0.087455 -0.964603
v 0.990664 -0.088205 0.698823
v 0.983642 -0.088299 0.790587
v 0.964603 -0.088406 0.868596
v -0.698823 -0.088192 0.990664
v -0.790587 -0.088295 0.983642
v -0.868596 -0.088406 0.964603
v 0.964603 -0.087455 -0.868596
v 0.983642 -0.087052 -0.790586
v 0.990664 -0.086707 -0.698823
v 0.991667 -0.086703 -0.500000
v 0.991667 -0.087024 -0.400000
v 0.991667 -0.087392 -0.300000
v 0.991667 -0.087759 -0.100000
v 0.991667 -0.087712 0.000000
v 0.991667 -0.087617 0.100000
v 0.991667 -0.087624 0.300000
v 0.991667 -0.087765 0.400000
v 0.991667 -0.087939 0.500000
v -0.964603 -0.088409 0.868596
v -0.983642 -0.088321 0.790587
v -0.990664 -0.088280 0.698823
v -0.991673 -0.088270 0.500000
v -0.991715 -0.088238 0.400000
v -0.991830 -0.088152 0.300000
v -0.992396 -0.087726 0.100000
v -0.992776 -0.087441 0.000000
v -0.993084 -0.087210 -0.100000
v -0.993084 -0.087210 -0.300000
v -0.992776 -0.087441 -0.400000
v -0.992396 -0.087726 -0.500000
v 0.868596 -0.088409 0.964603
v 0.790587 -0.088321 0.983642
v 0.698823 -0.088280 0.990664
v 0.500000 -0.088271 0.991667
v 0.400000 -0.088248 0.991667
v 0.300000 -0.088186 0.991667
v 0.100000 -0.087878 0.991667
v 0.000000 -0.087672 0.991667
v -0.100000 -0.087505 0.991667
v -0.300000 -0.087505 0.991667
v -0.400000 -0.087672 0.991667
v -0.500000 -0.087878 0.991667
v -0.868596 -0.088409 -0.964603
v -0.790587 -0.088321 -0.983642
v -0.698823 -0.088280 -0.990664
v -0.500000 -0.088274 -0.991667
v -0.400000 -0.088274 -0.991667
v -0.300000 -0.088274 -0.991667
v -0.100000 -0.088267 -0.991667
v -0.000000 -0.088221 -0.991667
v 0.100000 -0.088094 -0.991667
v 0.300000 -0.087467 -0.991667
v 0.400000 -0.087046 -0.991667
v 0.500000 -0.086706 -0.991667
v -0.927624 0.758440 0.927624
v -0.927624 0.758440 -0.927624
v 0.927624 0.759247 -0.927624
v 0.927624 0.758440 0.927624
v 0.991667 0.760336 -0.600000
v 0.991667 0.759232 -0.200000
v 0.991667 0.759336 0.200000
v 0.991667 0.758805 0.600000
v -0.991667 0.758628 0.600000
v -0.992053 0.758918 0.200000
v -0.993210 0.759787 -0.200000
v -0.992053 0.758918 -0.600000
v 0.600000 0.758628 0.991667
v 0.200000 0.758837 0.991667
v -0.200000 0.759466 0.991667
v -0.600000 0.758837 0.991667
v -0.600000 0.758628 -0.991667
v -0.200000 0.758628 -0.991667
v 0.200000 0.759055 -0.991667
v 0.600000 0.760336 -0.991667
v -0.990826 0.758744 -0.698823
v -0.983690 0.758617 -0.790587
v -0.964609 0.758498 -0.868596
v 0.698823 0.760195 -0.990664
v 0.790587 0.759850 -0.983642
v 0.868596 0.759447 -0.964603
v 0.990664 0.758697 0.698823
v 0.983642 0.758603 0.790587
v 0.964603 0.758496 0.868596
v -0.698823 0.758710 0.990664
v -0.790587 0.758607 0.983642
v -0.868596 0.758496 0.964603
v 0.964603 0.759447 -0.868596
v 0.983642 0.759850 -0.790586
v 0.990664 0.760195 -0.698823
v 0.991667 0.760199 -0.500000
v 0.991667 0.759878 -0.400000
v 0.991667 0.759510 -0.300000
v 0.991667 0.759143 -0.100000
v 0.991667 0.759190 0.000000
v 0.991667 0.759284 0.100000
v 0.991667 0.759278 0.300000
v 0.991667 0.759137 0.400000
v 0.991667 0.758963 0.500000
v -0.964603 0.758493 0.868596
v -0.983642 0.758581 0.790587
v -0.990664 0.758622 0.698823
v -0.991673 0.758632 0.500000
v -0.991715 0.758664 0.400000
v -0.991830 0.758750 0.300000
v -0.992396 0.759176 0.100000
v -0.992776 0.759461 0.000000
v -0.993084 0.759692 -0.100000
v -0.993084 0.759692 -0.300000
v -0.992776 0.759461 -0.400000
v -0.992396 0.759176 -0.500000
v 0.868596 0.758493 0.964603
v 0.790587 0.758581 0.983642
v 0.698823 0.758622 0.990664
v 0.500000 0.758631 0.991667
v 0.400000 0.758654 0.991667
v 0.300000 0.758716 0.991667
v 0.100000 0.759024 0.991667
v 0.000000 0.759230 0.991667
v -0.100000 0.759397 0.991667
v -0.300000 0.759397 0.991667
v -0.400000 0.759230 0.991667
v -0.500000 0.759024 0.991667
v -0.868596 0.758493 -0.964603
v -0.790587 0.758581 -0.983642
v -0.698823 0.758622 -0.990664
v -0.500000 0.758628 -0.991667
v -0.400000 0.758628 -0.991667
v -0.300000 0.758628 -0.991667
v -0.100000 0.758634 -0.991667
v -0.000000 0.758681 -0.991667
v 0.100000 0.758808 -0.991667
v 0.300000 0.759435 -0.991667
v 0.400000 0.759856 -0.991667
v 0.500000 0.760196 -0.991667
vn 0.7071 -0.0000 -0.7071
vn 0.7071 -0.0000 0.7071
vn -0.7071 -0.0000 0.7071
vn -0.7071 -0.0000 -0.7071
vn -1.0000 -0.0000 0.0051
vn -1.0000 -0.0000 -0.0000
vn -1.0000 -0.0000 -0.0051
vn 1.0000 -0.0000 -0.0051
vn 1.0000 -0.0000 -0.0028
vn 1.0000 -0.0000 -0.0000
vn 1.0000 -0.0000 0.0079
vn -0.0051 -0.0000 -1.0000
vn -0.0000 -0.0000 -1.0000
vn 0.0051 -0.0000 -1.0000
vn 0.0051 -0.0000 1.0000
vn -0.0000 -0.0000 1.0000
vn -0.0051 -0.0000 1.0000
vn 0.9990 -0.0000 0.0450
vn 0.9874 -0.0000 0.1582
vn 0.9211 -0.0000 0.3894
vn -0.0433 -0.0000 0.9991
vn -0.1574 -0.0000 0.9875
vn -0.3894 -0.0000 0.9211
vn -0.9991 -0.0000 -0.0433
vn -0.9876 -0.0000 -0.1573
vn -0.9212 -0.0000 -0.3891
vn 0.0433 -0.0000 -0.9991
vn 0.1573 -0.0000 -0.9876
vn 0.3891 -0.0000 -0.9212
vn -0.9211 -0.0000 0.3894
vn -0.9875 -0.0000 0.1574
vn -0.9991 -0.0000 0.0433
vn 0.9212 -0.0000 -0.3891
vn 0.9876 -0.0000 -0.1573
vn 0.9991 -0.0000 -0.0433
vn 1.0000 -0.0000 -0.0002
vn 1.0000 -0.0000 -0.0008
vn 1.0000 -0.0000 -0.0017
vn 1.0000 -0.0000 -0.0036
vn 1.0000 -0.0000 -0.0034
vn 1.0000 -0.0000 -0.0022
vn 1.0000 -0.0000 0.0022
vn 1.0000 -0.0000 0.0034
vn 1.0000 -0.0000 0.0036
vn -0.3891 -0.0000 -0.9212
vn -0.1573 -0.0000 -0.9876
vn -0.0433 -0.0000 -0.9991
vn 0.3891 -0.0000 0.9212
vn 0.1573 -0.0000 0.9876
vn 0.0433 -0.0000 0.9991
vn 0.9874 -0.0000 0.1580
vn 0.9212 -0.0000 0.3891
vn -0.0432 -0.0000 0.9991
vn -0.1570 -0.0000 0.9876
vn -0.3886 -0.0000 0.9214
vn -0.9991 -0.0000 -0.0432
vn -0.9876 -0.0000 -0.1572
vn -0.9213 -0.0000 -0.3889
vn 0.0432 -0.0000 -0.9991
vn 0.1572 -0.0000 -0.9876
vn 0.3889 -0.0000 -0.9213
vn -0.9214 -0.0000 0.3886
vn -0.9876 -0.0000 0.1570
vn -0.9991 -0.0000 0.0432
vn 0.9213 -0.0000 -0.3889
vn 0.9876 -0.0000 -0.1572
vn 0.9991 -0.0000 -0.0432
vn -0.3889 -0.0000 -0.9213
vn -0.1572 -0.0000 -0.9876
vn -0.0432 -0.0000 -0.9991
vn 0.3889 -0.0000 0.9213
vn 0.1572 -0.0000 0.9876
vn 0.0432 -0.0000 0.9991
vt 0.252958 0.012760
vt 0.279160 0.012953
vt 0.279160 0.992553
vt 0.252958 0.992360
vt 0.641553 0.012105
vt 0.667756 0.012205
vt 0.667756 0.991804
vt 0.641553 0.991705
vt 0.615358 0.008708
vt 0.589155 0.008870
vt 0.589155 0.988470
vt 0.615358 0.988307
vt 0.772574 0.006902
vt 0.746372 0.006956
vt 0.746372 0.986555
vt 0.772574 0.986502
vt 0.024698 0.006741
vt 0.006447 0.006676
vt 0.006447 0.986276
vt 0.024698 0.986340
vt 0.563260 0.008707
vt 0.539145 0.008308
vt 0.539145 0.987907
vt 0.563260 0.988307
vt 0.006439 0.011847
vt 0.024691 0.011908
vt 0.024691 0.991508
vt 0.006439 0.991447
vt 0.200560 0.007713
vt 0.174357 0.007645
vt 0.174357 0.987245
vt 0.200560 0.987312
vt 0.953598 0.006840
vt 0.929484 0.006887
vt 0.929484 0.986487
vt 0.953598 0.986439
vt 0.851175 0.013027
vt 0.877378 0.012697
vt 0.877378 0.992297
vt 0.851175 0.992627
vt 0.436070 0.012159
vt 0.460184 0.012040
vt 0.460184 0.991639
vt 0.436070 0.991759
vt 0.200552 0.012306
vt 0.226755 0.012522
vt 0.226755 0.992121
vt 0.200552 0.991906
vt 0.589148 0.012063
vt 0.615351 0.012069
vt 0.615351 0.991668
vt 0.589148 0.991663
vt 0.720169 0.007102
vt 0.720169 0.986702
vt 0.518105 0.007841
vt 0.518105 0.987441
vt 0.992890 0.006677
vt 0.974639 0.006738
vt 0.974639 0.986338
vt 0.992890 0.986277
vt 0.798770 0.013404
vt 0.824973 0.013294
vt 0.824973 0.992894
vt 0.798770 0.993004
vt 0.331573 0.007914
vt 0.305371 0.007592
vt 0.305371 0.987192
vt 0.331573 0.987514
vt 0.481232 0.007840
vt 0.460192 0.008307
vt 0.460192 0.987907
vt 0.481232 0.987441
vt 0.481225 0.011911
vt 0.481225 0.991511
vt 0.798777 0.006894
vt 0.798777 0.986494
vt 0.069846 0.012057
vt 0.095742 0.012064
vt 0.095742 0.991663
vt 0.069846 0.991657
vt 0.121952 0.007280
vt 0.095749 0.007098
vt 0.095749 0.986698
vt 0.121952 0.986880
vt 0.279168 0.007489
vt 0.252965 0.007544
vt 0.252965 0.987144
vt 0.279168 0.987089
vt 0.410174 0.012306
vt 0.410174 0.991906
vt 0.436077 0.008706
vt 0.436077 0.988307
vt 0.305363 0.013033
vt 0.305363 0.992633
vt 0.121944 0.012067
vt 0.148147 0.012094
vt 0.148147 0.991694
vt 0.121944 0.991667
vt 0.693959 0.012398
vt 0.693959 0.991998
vt 0.518097 0.011908
vt 0.539137 0.012009
vt 0.539137 0.991609
vt 0.518097 0.991507
vt 0.226763 0.007653
vt 0.226763 0.987253
vt 0.903588 0.006894
vt 0.903588 0.986494
vt 0.331566 0.012953
vt 0.357768 0.012760
vt 0.357769 0.992360
vt 0.331566 0.992553
vt 0.903581 0.012398
vt 0.903581 0.991998
vt 0.720162 0.012697
vt 0.746365 0.013027
vt 0.746365 0.992627
vt 0.720162 0.992297
vt 0.499484 0.007610
vt 0.499484 0.987209
vt 0.174350 0.012166
vt 0.174350 0.991765
vt 0.563252 0.012057
vt 0.563252 0.991656
vt 0.693966 0.007388
vt 0.693966 0.986988
vt 0.877385 0.006894
vt 0.851182 0.006894
vt 0.851182 0.986494
vt 0.877385 0.986494
vt 0.499853 0.007610
vt 0.499853 0.987209
vt 0.929478 0.012198
vt 0.953595 0.012051
vt 0.953595 0.991651
vt 0.929478 0.991797
vt 0.383971 0.012521
vt 0.383971 0.992121
vt 0.772567 0.013294
vt 0.772567 0.992894
vt 0.667764 0.007828
vt 0.641561 0.008314
vt 0.641561 0.987914
vt 0.667764 0.987428
vt 0.499476 0.011847
vt 0.499476 0.991446
vt 0.069853 0.006973
vt 0.045739 0.006864
vt 0.045739 0.986464
vt 0.069853 0.986572
vt 0.499846 0.011846
vt 0.499846 0.991446
vt 0.824980 0.006894
vt 0.824980 0.986494
vt 0.974638 0.011912
vt 0.974638 0.991513
vt 0.410182 0.008869
vt 0.410182 0.988470
vt 0.383979 0.008710
vt 0.357776 0.008339
vt 0.357776 0.987939
vt 0.383979 0.988310
vt 0.045731 0.012010
vt 0.045731 0.991609
vt 0.148155 0.007482
vt 0.148154 0.987082
vt 0.992890 0.011846
vt 0.992890 0.991446
s 1
f 64/1/13 65/2/13 145/3/13 144/4/13
f 49/5/37 50/6/38 130/7/38 129/8/37
f 80/9/16 20/10/17 100/11/17 160/12/16
f 75/13/16 76/14/16 156/15/16 155/16/16
f 29/17/26 4/18/4 84/19/4 109/20/58
f 24/21/21 25/22/22 105/23/54 104/24/53
f 4/25/4 57/26/45 137/27/68 84/28/4
f 7/29/6 42/30/6 122/31/6 87/32/6
f 70/33/49 71/34/50 151/35/73 150/36/72
f 55/37/43 56/38/44 136/39/44 135/40/43
f 30/41/27 31/42/28 111/43/60 110/44/59
f 14/45/13 63/46/13 143/47/13 94/48/13
f 9/49/8 48/50/36 128/51/36 89/52/8
f 76/14/16 77/53/16 157/54/16 156/15/16
f 25/22/22 26/55/23 106/56/55 105/23/54
f 2/57/2 69/58/48 149/59/71 82/60/2
f 11/61/10 54/62/42 134/63/42 91/64/10
f 38/65/6 6/66/6 86/67/6 118/68/6
f 33/69/30 34/70/31 114/71/63 113/72/62
f 31/42/28 32/73/29 112/74/61 111/43/60
f 18/75/16 75/13/16 155/16/16 98/76/16
f 20/10/17 24/21/21 104/24/53 100/11/17
f 59/77/47 13/78/12 93/79/12 139/80/70
f 44/81/6 8/82/7 88/83/7 124/84/6
f 39/85/6 40/86/6 120/87/6 119/88/6
f 16/89/14 30/41/27 110/44/59 96/90/14
f 34/70/31 35/91/32 115/92/64 114/71/63
f 65/2/13 15/93/13 95/94/13 145/3/13
f 60/95/13 61/96/13 141/97/13 140/98/13
f 50/6/38 10/99/9 90/100/9 130/7/38
f 45/101/33 46/102/34 126/103/66 125/104/65
f 40/86/6 41/105/6 121/106/6 120/87/6
f 71/34/50 17/107/15 97/108/15 151/35/73
f 66/109/13 67/110/13 147/111/13 146/112/13
f 56/38/44 12/113/11 92/114/11 136/39/44
f 51/115/39 52/116/40 132/117/40 131/118/39
f 3/119/3 33/69/30 113/72/62 83/120/3
f 61/96/13 62/121/13 142/122/13 141/97/13
f 46/102/34 47/123/35 127/124/67 126/103/66
f 77/53/16 19/125/16 99/126/16 157/54/16
f 72/127/16 73/128/16 153/129/16 152/130/16
f 26/55/23 3/131/3 83/132/3 106/56/55
f 21/133/18 22/134/19 102/135/51 101/136/18
f 6/66/6 39/85/6 119/88/6 86/67/6
f 67/110/13 68/137/13 148/138/13 147/111/13
f 52/116/40 53/139/41 133/140/41 132/117/40
f 78/141/16 79/142/16 159/143/16 158/144/16
f 32/73/29 1/145/1 81/146/1 112/74/61
f 27/147/24 28/148/25 108/149/57 107/150/56
f 13/78/12 60/95/13 140/98/13 93/79/12
f 1/151/1 45/101/33 125/104/65 81/152/1
f 73/128/16 74/153/16 154/154/16 153/129/16
f 22/134/19 23/155/20 103/156/52 102/135/51
f 15/93/13 66/109/13 146/112/13 95/94/13
f 10/99/9 51/115/39 131/118/39 90/100/9
f 79/142/16 80/9/16 160/12/16 159/143/16
f 35/91/32 5/157/5 85/158/5 115/92/64
f 28/148/25 29/17/26 109/20/58 108/149/57
f 17/107/15 72/127/16 152/130/16 97/108/15
f 12/113/11 21/133/18 101/136/18 92/114/11
f 41/105/6 7/29/6 87/32/6 121/106/6
f 36/159/6 37/160/6 117/161/6 116/162/6
f 19/125/16 78/141/16 158/144/16 99/126/16
f 8/82/7 27/147/24 107/150/56 88/83/7
f 62/121/13 14/45/13 94/48/13 142/122/13
f 57/26/45 58/163/46 138/164/69 137/27/68
f 47/123/35 9/49/8 89/52/8 127/124/67
f 42/30/6 43/165/6 123/166/6 122/31/6
f 37/160/6 38/65/6 118/68/6 117/161/6
f 68/137/13 16/89/14 96/90/14 148/138/13
f 63/46/13 64/1/13 144/4/13 143/47/13
f 53/139/41 11/61/10 91/64/10 133/140/41
f 48/50/36 49/5/37 129/8/37 128/51/36
f 58/163/46 59/77/47 139/80/70 138/164/69
f 43/165/6 44/81/6 124/84/6 123/166/6
f 74/153/16 18/75/16 98/76/16 154/154/16
f 69/58/48 70/33/49 150/36/72 149/59/71
f 23/155/20 2/167/2 82/168/2 103/156/52
f 54/62/42 55/37/43 135/40/43 134/63/42
f 5/157/5 36/159/6 116/162/6 85/158/5
